<svg xmlns="http://www.w3.org/2000/svg" xmlns:xlink="http://www.w3.org/1999/xlink" version="1.1" id="Capa_1" x="0px" y="0px" viewBox="0 0 612 612" style="width: 200px; height: 200px; transform-origin: 50% 50%; transform: scaleX(1) scaleY(1) rotate(-90deg);" xml:space="preserve" preserveAspectRatio="xMidYMid meet">
<g fill="#FFFFFF" style="fill:#FFFFFF;stroke:none" stroke="none">
	<g id="_x31__34_" fill="#FFFFFF" style="fill:#FFFFFF;stroke:none" stroke="none">
		<g fill="#FFFFFF" style="fill:#FFFFFF;stroke:none" stroke="none">
			<path d="M306,0C136.992,0,0,137.012,0,306c0,169.008,136.992,306,306,306s306-136.992,306-306C612,137.012,475.008,0,306,0z      M392.751,322.811l-146.44,146.44c-7.478,7.478-19.584,7.478-27.043,0c-7.478-7.478-7.478-19.584,0-27.043L355.457,306     L219.268,169.811c-7.478-7.478-7.478-19.584,0-27.043c7.478-7.478,19.584-7.478,27.043,0l146.44,146.44     c4.59,4.59,6.005,10.863,4.973,16.812C398.756,311.948,397.322,318.221,392.751,322.811z" fill="#FFFFFF" style="fill:#FFFFFF;stroke:none" stroke="none"/>
		</g>
	</g>
</g>
<g fill="#FFFFFF" style="fill:#FFFFFF;stroke:none" stroke="none">
</g>
<g fill="#FFFFFF" style="fill:#FFFFFF;stroke:none" stroke="none">
</g>
<g fill="#FFFFFF" style="fill:#FFFFFF;stroke:none" stroke="none">
</g>
<g fill="#FFFFFF" style="fill:#FFFFFF;stroke:none" stroke="none">
</g>
<g fill="#FFFFFF" style="fill:#FFFFFF;stroke:none" stroke="none">
</g>
<g fill="#FFFFFF" style="fill:#FFFFFF;stroke:none" stroke="none">
</g>
<g fill="#FFFFFF" style="fill:#FFFFFF;stroke:none" stroke="none">
</g>
<g fill="#FFFFFF" style="fill:#FFFFFF;stroke:none" stroke="none">
</g>
<g fill="#FFFFFF" style="fill:#FFFFFF;stroke:none" stroke="none">
</g>
<g fill="#FFFFFF" style="fill:#FFFFFF;stroke:none" stroke="none">
</g>
<g fill="#FFFFFF" style="fill:#FFFFFF;stroke:none" stroke="none">
</g>
<g fill="#FFFFFF" style="fill:#FFFFFF;stroke:none" stroke="none">
</g>
<g fill="#FFFFFF" style="fill:#FFFFFF;stroke:none" stroke="none">
</g>
<g fill="#FFFFFF" style="fill:#FFFFFF;stroke:none" stroke="none">
</g>
<g fill="#FFFFFF" style="fill:#FFFFFF;stroke:none" stroke="none">
</g>
</svg>